# xmcd CD database file
#
# Track frame offsets:
#	150
#	4055
#	24617
#	46042
#	66837
#	86801
#	92297
#	106801
#	129063
#	147428
#	168158
#	184784
#	205669
#	232988
#
# Disc length: 3382 seconds
#
# Revision: 1
# Processed by: cddbd v1.4PL0 Copyright (c) Steve Scherf et al.
# Submitted via: CDex 1.40Release
#
DISCID=a40d340e
DTITLE=Puff Daddy - We Invented The Remix
DYEAR=2002
DGENRE=Hip Hop
TTITLE0=Special Delivery Remix - G Dep, Keith Murray, Ghostface Killah and Craig Mack
TTITLE1=I Need A Girl (Part 2) - P.Diddy, Ginuwine, Loon, Mario Winans and Tammy Ruggeri
TTITLE2=Bad Boy For Life Remix - P.Diddy, M.O.P. and Busta Rhymes
TTITLE3=I Need A Girl (Part 1) - P.Diddy, Usher and Loon
TTITLE4=The Remix Phenomenon Interlude
TTITLE5=Unfoolish - Ashanti and Notorious B.I.G.
TTITLE6=Dance With Me Remix - 112 and Beanie Sigel - Peaches and Cream Remix - 112 and Ludacris
TTITLE7=Peaches and Cream Remix - 112 and Ludacris
TTITLE8=No More Drama Remix - Mary J. Blige and P.Diddy
TTITLE9=So Complete Remix - P.Diddy and Cheri Dennis
TTITLE10=Notorious BIG Remix - Notorious B.I.G., Lil Kim and P.Diddy
TTITLE11=That's Crazy - P.Diddy, Missy Elliot, G Dep and Snoop Dogg
TTITLE12=Woke Up In The Morning Remix - Carl Thomas and Notorious B.I.G.
TTITLE13=You Gets No Love Remix - G Dep and Faith Evans
EXTD=YEAR: 2002
EXTT0=
EXTT1=
EXTT2=
EXTT3=
EXTT4=
EXTT5=
EXTT6=
EXTT7=
EXTT8=
EXTT9=
EXTT10=
EXTT11=
EXTT12=
EXTT13=
PLAYORDER=
